nColumns=19
nRows=75
DataType=double
version=3
OpenSimVersion=4.1
endheader
time	ground_force_calcn_l_vx	ground_force_calcn_l_vy	ground_force_calcn_l_vz	ground_force_calcn_l_px	ground_force_calcn_l_py	ground_force_calcn_l_pz	ground_force_calcn_l_mx	ground_force_calcn_l_my	ground_force_calcn_l_mz	ground_force_calcn_r_vx	ground_force_calcn_r_vy	ground_force_calcn_r_vz	ground_force_calcn_r_px	ground_force_calcn_r_py	ground_force_calcn_r_pz	ground_force_calcn_r_mx	ground_force_calcn_r_my	ground_force_calcn_r_mz
0	0	0	0	0	0.057604	0	0	0	0	0	0	0	0	0.0405342	0	0	0	0
0.00999112	0	0	0	0	-1.86337e-17	0	0	0	0	-25.5298	659.673	78.9565	-0.168001	-1.86337e-17	-0.215834	-0.0348928	0.901607	0.107914
0.0199822	0	0	0	0	-1.84724e-17	0	0	0	0	-25.5789	665.255	79.7888	-0.166498	-1.84724e-17	-0.215329	-0.0241843	0.628984	0.0754386
0.0299734	0	0	0	0	-1.83262e-17	0	0	0	0	-25.6541	670.703	80.4933	-0.165139	-1.83262e-17	-0.214817	-0.0152155	0.397795	0.0477407
0.0399645	0	0	0	0	-1.81962e-17	0	0	0	0	-25.7534	675.945	81.0569	-0.163933	-1.81962e-17	-0.214299	-0.00783967	0.205766	0.0246747
0.0499556	0	0	0	0	-1.80789e-17	0	0	0	0	-25.8842	680.911	81.5078	-0.162847	-1.80789e-17	-0.213774	-0.0013244	0.0348397	0.00417045
0.0599467	0	0	0	0	-1.79727e-17	0	0	0	0	-26.0645	685.536	81.8118	-0.161869	-1.79727e-17	-0.213252	0.00323253	-0.0850206	-0.0101463
0.0699378	0	0	0	0	-1.78797e-17	0	0	0	0	-26.311	689.774	81.9526	-0.161014	-1.78797e-17	-0.212726	0.00705144	-0.184862	-0.0219636
0.079929	0	0	0	0	-1.77977e-17	0	0	0	0	-26.5795	693.583	81.9103	-0.160265	-1.77977e-17	-0.212201	0.0095286	-0.248646	-0.0293644
0.0899201	0	0	0	0	-1.77236e-17	0	0	0	0	-26.8933	696.943	81.7382	-0.15959	-1.77236e-17	-0.211682	0.011514	-0.298387	-0.0349952
0.0999112	0	0	0	0	-1.7655e-17	0	0	0	0	-27.2374	699.843	81.4906	-0.15896	-1.7655e-17	-0.211158	0.0146559	-0.376573	-0.0438487
0.109902	0	0	0	0	-1.7591e-17	0	0	0	0	-27.5697	702.301	81.154	-0.158371	-1.7591e-17	-0.210634	0.0178403	-0.454459	-0.0525147
0.119893	0	0	0	0	-1.75315e-17	0	0	0	0	-27.9267	704.362	80.7378	-0.157823	-1.75315e-17	-0.210119	0.0210499	-0.530918	-0.0608566
0.129885	0	0	0	0	-1.74752e-17	0	0	0	0	-28.2999	706.053	80.2707	-0.157305	-1.74752e-17	-0.209622	0.0242006	-0.603781	-0.0686434
0.139876	0	0	0	0	-1.74208e-17	0	0	0	0	-28.6631	707.366	79.8099	-0.1568	-1.74208e-17	-0.20913	0.0286432	-0.706875	-0.0797545
0.149867	0	0	0	0	-1.73672e-17	0	0	0	0	-29.0041	708.303	79.3919	-0.156297	-1.73672e-17	-0.208639	0.0344064	-0.840234	-0.0941797
0.159858	0	0	0	0	-1.73133e-17	0	0	0	0	-29.3513	708.867	78.9587	-0.155798	-1.73133e-17	-0.208163	0.0387087	-0.934857	-0.104131
0.169849	0	0	0	0	-1.72566e-17	0	0	0	0	-29.6786	709.064	78.5258	-0.155276	-1.72566e-17	-0.207687	0.0420481	-1.00459	-0.111254
0.17984	0	0	0	0	-1.71964e-17	0	0	0	0	-29.9744	708.861	78.1252	-0.154722	-1.71964e-17	-0.207201	0.0458651	-1.08466	-0.119542
0.189831	0	0	0	0	-1.7132e-17	0	0	0	0	-30.2593	708.213	77.7592	-0.154135	-1.7132e-17	-0.206712	0.0486198	-1.13794	-0.124941
0.199822	0	0	0	0	-1.70658e-17	0	0	0	0	-30.5428	707.067	77.4179	-0.153531	-1.70658e-17	-0.206223	0.0513558	-1.18889	-0.130173
0.209813	0	0	0	0	-1.6997e-17	0	0	0	0	-30.7876	705.371	77.0663	-0.152907	-1.6997e-17	-0.205741	0.0531673	-1.21811	-0.133086
0.219805	0	0	0	0	-1.69231e-17	0	0	0	0	-31.0153	703.071	76.726	-0.15224	-1.69231e-17	-0.205275	0.0538768	-1.22131	-0.133281
0.229796	0	0	0	0	-1.68437e-17	0	0	0	0	-31.2472	700.119	76.4353	-0.151524	-1.68437e-17	-0.204827	0.0547384	-1.22646	-0.133898
0.239787	0	0	0	0	-1.67611e-17	0	0	0	0	-31.4525	696.467	76.1619	-0.150778	-1.67611e-17	-0.204395	0.055333	-1.22527	-0.133989
0.249778	0.856562	7.09097	0.156118	-0.146578	-1.6377e-17	0.281924	-0.0362975	-0.300485	-0.00661563	-31.6706	692.075	75.8941	-0.150037	-1.66794e-17	-0.203976	0.0571236	-1.24828	-0.136889
0.259769	1.55644	13.8349	0.10024	-0.160983	-1.79043e-17	0.280516	-0.0611352	-0.543421	-0.00393734	-31.8898	686.955	75.5765	-0.149289	-1.65969e-17	-0.203571	0.058628	-1.26294	-0.138944
0.26976	2.32231	22.3931	-0.188393	-0.175977	-1.95038e-17	0.278829	-0.0835054	-0.805207	0.00677423	-32.1778	681.126	75.2513	-0.148554	-1.65161e-17	-0.203196	0.0611555	-1.29451	-0.143019
0.279751	3.05025	32.3714	-0.818771	-0.191228	-2.11397e-17	0.276823	-0.0986471	-1.04691	0.0264796	-32.3975	674.599	74.9206	-0.147812	-1.64354e-17	-0.202827	0.0655974	-1.36591	-0.151697
0.289742	3.74521	43.4245	-1.8621	-0.206012	-2.27242e-17	0.27421	-0.11622	-1.34754	0.0577844	-32.6093	667.381	74.5451	-0.147092	-1.63576e-17	-0.202464	0.0713467	-1.46018	-0.163099
0.299734	4.32155	55.4376	-3.32331	-0.218908	-2.41006e-17	0.271321	-0.131877	-1.69175	0.101415	-32.8073	659.426	74.082	-0.146452	-1.62884e-17	-0.202133	0.0760009	-1.52762	-0.171617
0.309725	4.79098	68.4361	-5.16635	-0.227921	-2.50493e-17	0.268386	-0.145775	-2.0823	0.157196	-32.947	650.719	73.5948	-0.145852	-1.62239e-17	-0.201825	0.0816423	-1.61247	-0.182367
0.319716	5.11549	82.3477	-7.30183	-0.232875	-2.55499e-17	0.265763	-0.158168	-2.54613	0.225768	-32.982	641.203	73.0269	-0.145262	-1.61603e-17	-0.201543	0.0858991	-1.66996	-0.190193
0.329707	5.209	97.0947	-9.72175	-0.234764	-2.57134e-17	0.263146	-0.164281	-3.06217	0.306604	-32.9216	630.752	72.3388	-0.144739	-1.61034e-17	-0.201299	0.0881715	-1.68929	-0.19374
0.339698	5.13695	112.637	-12.3869	-0.234342	-2.5626e-17	0.260638	-0.16459	-3.60894	0.396881	-32.7289	619.278	71.4889	-0.144363	-1.6062e-17	-0.201085	0.0882328	-1.66949	-0.192725
0.349689	4.90597	128.919	-15.2694	-0.231803	-2.53087e-17	0.258338	-0.159155	-4.18227	0.495356	-32.3317	606.721	70.4884	-0.144122	-1.60346e-17	-0.200903	0.0849434	-1.594	-0.18519
0.35968	4.50559	145.791	-18.329	-0.227371	-2.47819e-17	0.256324	-0.148903	-4.8182	0.605747	-31.7956	592.998	69.3577	-0.144015	-1.60225e-17	-0.200765	0.082433	-1.5374	-0.179816
0.369671	3.93676	162.975	-21.556	-0.221946	-2.41462e-17	0.254569	-0.13265	-5.49147	0.726333	-31.0479	578.1	68.0536	-0.144056	-1.60256e-17	-0.200689	0.0764056	-1.42265	-0.167473
0.379663	3.29023	180.233	-24.9629	-0.216387	-2.34984e-17	0.253013	-0.112412	-6.15773	0.852865	-30.1342	562.085	66.5893	-0.144351	-1.60565e-17	-0.200681	0.0694763	-1.29592	-0.153526
0.389654	2.53652	197.401	-28.5216	-0.211088	-2.28825e-17	0.251633	-0.0874339	-6.80444	0.98314	-29.0451	545.027	64.9698	-0.144934	-1.6118e-17	-0.200759	0.0594234	-1.11507	-0.132922
0.399645	1.81115	214.353	-32.1841	-0.206077	-2.22973e-17	0.250569	-0.0632125	-7.48132	1.12329	-27.8066	527.067	63.2012	-0.145749	-1.6204e-17	-0.200922	0.0472945	-0.896454	-0.107495
0.409636	1.16542	231.019	-35.9455	-0.201562	-2.17689e-17	0.249747	-0.041081	-8.1434	1.26707	-26.3617	508.379	61.2935	-0.146745	-1.63093e-17	-0.201166	0.0339594	-0.654899	-0.0789589
0.419627	0.688592	247.384	-39.7778	-0.197794	-2.1325e-17	0.249189	-0.0244791	-8.79439	1.41408	-24.7755	489.137	59.2113	-0.148054	-1.6447e-17	-0.201513	0.0179121	-0.353634	-0.0428083
0.429618	0.355764	263.496	-43.6365	-0.194867	-2.09767e-17	0.248831	-0.0127298	-9.42831	1.56139	-23.059	469.469	56.9837	-0.149724	-1.66232e-17	-0.201924	0.000811184	-0.0165153	-0.00200461
0.439609	0.181317	279.427	-47.4611	-0.19264	-2.07093e-17	0.248663	-0.00651953	-10.0472	1.70654	-21.1609	449.494	54.6394	-0.151671	-1.68288e-17	-0.202375	-0.0157521	0.334601	0.0406733
0.4496	0.180216	295.306	-51.1886	-0.190922	-2.05012e-17	0.248698	-0.00651203	-10.6707	1.84968	-19.1111	429.362	52.1447	-0.15384	-1.70568e-17	-0.20288	-0.0324589	0.729243	0.0885645
0.459591	0.219321	311.27	-54.8446	-0.189657	-2.03486e-17	0.248769	-0.00793275	-11.2585	1.98371	-16.9336	409.127	49.4702	-0.15632	-1.73158e-17	-0.203416	-0.0494504	1.19476	0.144466
0.469583	0.323862	327.404	-58.3976	-0.188762	-2.02413e-17	0.248876	-0.0117023	-11.8303	2.11012	-14.6719	388.794	46.6218	-0.159193	-1.76157e-17	-0.203938	-0.0642836	1.70347	0.204269
0.479574	0.371375	343.737	-61.7953	-0.188126	-2.01669e-17	0.248987	-0.0133835	-12.3875	2.22696	-12.2983	368.42	43.6429	-0.162382	-1.79481e-17	-0.204396	-0.0747315	2.23874	0.2652
0.489565	0.305882	360.303	-64.9932	-0.187559	-2.01035e-17	0.249108	-0.0109941	-12.9501	2.336	-9.9327	348.128	40.5507	-0.165825	-1.83074e-17	-0.204792	-0.0789566	2.76732	0.322344
0.499556	0.0604677	377.078	-68.0038	-0.186981	-2.00425e-17	0.249183	-0.0021641	-13.4954	2.43381	-7.56913	328.03	37.3135	-0.169485	-1.86881e-17	-0.205073	-0.0770036	3.33717	0.379604
0.509547	-0.366675	393.938	-70.8656	-0.186408	-1.99861e-17	0.249154	0.0130228	-13.9911	2.51686	-5.2706	308.233	33.9605	-0.173397	-1.90972e-17	-0.205176	-0.0662641	3.87523	0.426964
0.519538	-1.02006	410.717	-73.536	-0.185864	-1.9936e-17	0.249026	0.0358736	-14.4441	2.58612	-3.08999	288.914	30.5318	-0.17747	-1.95247e-17	-0.2051	-0.0469941	4.39395	0.464343
0.529529	-1.87811	427.24	-75.9502	-0.185342	-1.98903e-17	0.24885	0.0653562	-14.8675	2.64299	-1.10077	270.281	27.1071	-0.181554	-1.99561e-17	-0.204851	-0.0198207	4.86675	0.488097
0.53952	-2.86855	443.295	-78.1189	-0.184827	-1.98475e-17	0.248637	0.0985895	-15.2357	2.68488	0.685043	252.449	23.7485	-0.185627	-2.03912e-17	-0.204402	0.0142663	5.25737	0.494574
0.549512	-3.93312	458.646	-80.0675	-0.184331	-1.98077e-17	0.248385	0.133358	-15.5511	2.71481	2.23633	235.536	20.4706	-0.189644	-2.08249e-17	-0.203762	0.0532693	5.61047	0.48761
0.559503	-5.05279	473.095	-81.802	-0.183871	-1.97723e-17	0.2481	0.16885	-15.8095	2.7336	3.47846	219.668	17.3409	-0.193486	-2.12456e-17	-0.203015	0.0935426	5.90731	0.466331
0.569494	-6.19615	486.507	-83.2818	-0.183424	-1.97388e-17	0.247814	0.203863	-16.0068	2.7401	4.46596	204.941	14.4479	-0.196909	-2.16267e-17	-0.202182	0.133883	6.14384	0.433127
0.579485	-7.29659	498.771	-84.479	-0.182951	-1.97021e-17	0.247567	0.236533	-16.1686	2.73854	5.18868	191.384	11.8314	-0.19996	-2.19743e-17	-0.201259	0.170601	6.29259	0.389009
0.589476	-8.41181	509.807	-85.4388	-0.18249	-1.96668e-17	0.247307	0.268378	-16.2654	2.72592	5.66475	179.012	9.45203	-0.202712	-2.22964e-17	-0.20025	0.202106	6.38675	0.337228
0.599467	-9.4523	519.583	-86.1558	-0.182042	-1.96331e-17	0.247053	0.296623	-16.305	2.70366	5.91338	167.881	7.28471	-0.205028	-2.25778e-17	-0.199171	0.227029	6.44537	0.279678
0.609458	-10.4283	528.115	-86.6184	-0.18159	-1.95991e-17	0.246804	0.32153	-16.283	2.67065	6.03274	158.046	5.36212	-0.206707	-2.27951e-17	-0.197995	0.24669	6.4628	0.219267
0.619449	-11.3111	535.441	-86.8093	-0.181123	-1.95626e-17	0.246607	0.343144	-16.2437	2.63353	6.01931	149.506	3.70633	-0.207836	-2.29561e-17	-0.196742	0.258766	6.42714	0.159332
0.62944	-12.09	541.653	-86.7967	-0.180697	-1.95297e-17	0.246442	0.36134	-16.1888	2.59415	5.93084	142.272	2.27912	-0.20847	-2.30652e-17	-0.195384	0.265463	6.36807	0.102013
0.639432	-12.7341	546.913	-86.6892	-0.180348	-1.95046e-17	0.246279	0.374872	-16.1002	2.55199	5.81066	136.386	1.06443	-0.208592	-2.31185e-17	-0.193952	0.266892	6.26439	0.0488907
0.649423	-13.2567	551.426	-86.532	-0.180032	-1.94819e-17	0.246132	0.384805	-16.0064	2.51178	5.6861	131.856	0.0749305	-0.207993	-2.30889e-17	-0.192459	0.264927	6.14343	0.00349116
0.659414	-13.7353	555.394	-86.3661	-0.179718	-1.94575e-17	0.24601	0.393986	-15.931	2.47734	5.57025	128.634	-0.650145	-0.206749	-2.29799e-17	-0.190905	0.259406	5.99048	-0.0302772
0.669405	-14.1879	558.969	-86.2563	-0.179429	-1.94344e-17	0.245891	0.402723	-15.8663	2.44838	5.47059	126.666	-1.10499	-0.205098	-2.28147e-17	-0.189347	0.249898	5.78612	-0.0504763
0.679396	-14.6608	562.255	-86.2483	-0.179214	-1.94184e-17	0.245742	0.411733	-15.7904	2.4222	5.39564	125.882	-1.32427	-0.203076	-2.25977e-17	-0.187885	0.2391	5.57829	-0.0586831
0.689387	-15.1912	565.28	-86.3628	-0.179046	-1.94071e-17	0.245552	0.42191	-15.6997	2.39858	5.29748	126.181	-1.33089	-0.200728	-2.23351e-17	-0.18663	0.2254	5.36881	-0.0566272
0.699378	-15.7826	567.996	-86.5511	-0.178877	-1.93948e-17	0.245346	0.433375	-15.5966	2.37661	5.22215	127.427	-1.1325	-0.197944	-2.20162e-17	-0.185545	0.211835	5.16903	-0.0459394
0.709369	-16.3788	570.294	-86.7567	-0.178729	-1.93842e-17	0.245155	0.444791	-15.4872	2.35601	5.1509	129.519	-0.737404	-0.194879	-2.16601e-17	-0.184679	0.197228	4.95929	-0.0282353
0.719361	-16.9969	572.037	-86.9694	-0.178721	-1.9389e-17	0.244956	0.456169	-15.3526	2.33412	5.07526	132.35	-0.176352	-0.191695	-2.12878e-17	-0.184111	0.183219	4.77791	-0.00636638
0.729352	-17.5544	573.143	-87.1622	-0.178871	-1.94106e-17	0.244784	0.465875	-15.2106	2.31319	4.97383	135.788	0.538903	-0.188549	-2.09181e-17	-0.183873	0.169524	4.62809	0.0183675
0.739343	-18.0378	573.59	-87.3151	-0.179145	-1.94453e-17	0.24466	0.473622	-15.0609	2.29265	4.89028	139.677	1.39998	-0.185511	-2.05601e-17	-0.183909	0.157221	4.49059	0.0450089
